<?xml version="1.0" encoding="UTF-8" standalone="no"?>
<!-- Created with Inkscape (http://www.inkscape.org/) -->

<svg
   xmlns:dc="http://purl.org/dc/elements/1.1/"
   xmlns:cc="http://creativecommons.org/ns#"
   xmlns:rdf="http://www.w3.org/1999/02/22-rdf-syntax-ns#"
   xmlns:svg="http://www.w3.org/2000/svg"
   xmlns="http://www.w3.org/2000/svg"
   xmlns:sodipodi="http://sodipodi.sourceforge.net/DTD/sodipodi-0.dtd"
   xmlns:inkscape="http://www.inkscape.org/namespaces/inkscape"
   width="297mm"
   height="210mm"
   viewBox="0 0 297 210"
   version="1.1"
   id="svg8"
   inkscape:version="0.92.4 (5da689c313, 2019-01-14)"
   sodipodi:docname="LOGO Final.svg">
  <defs
     id="defs2" />
  <sodipodi:namedview
     id="base"
     pagecolor="#ffffff"
     bordercolor="#666666"
     borderopacity="1.0"
     inkscape:pageopacity="0.0"
     inkscape:pageshadow="2"
     inkscape:zoom="0.90509668"
     inkscape:cx="669.74524"
     inkscape:cy="684.47669"
     inkscape:document-units="mm"
     inkscape:current-layer="layer1"
     showgrid="false"
     inkscape:window-width="3840"
     inkscape:window-height="2004"
     inkscape:window-x="-16"
     inkscape:window-y="-16"
     inkscape:window-maximized="1" />
  <metadata
     id="metadata5">
    <rdf:RDF>
      <cc:Work
         rdf:about="">
        <dc:format>image/svg+xml</dc:format>
        <dc:type
           rdf:resource="http://purl.org/dc/dcmitype/StillImage" />
        <dc:title></dc:title>
      </cc:Work>
    </rdf:RDF>
  </metadata>
  <g
     inkscape:label="Layer 1"
     inkscape:groupmode="layer"
     id="layer1"
     transform="translate(0,-87)">
    <path
       id="path58"
       style="fill:#121212;stroke-width:0.41738185"
       d="m 129.8476,135.71795 v 27.27402 27.27401 l 1.00601,2.05263 c 1.32157,2.69649 3.39673,4.4975 6.23971,5.41578 1.27025,0.41029 2.8959,0.70257 3.61257,0.64948 l 1.30357,-0.0961 v -3.38052 c 0,-3.37961 -3e-4,-3.38088 -1.24115,-3.68733 -1.51078,-0.37311 -2.73817,-1.35666 -3.69014,-2.95853 -0.63679,-1.07156 -0.73945,-4.03234 -0.93268,-26.87402 l -0.21696,-25.66943 h -3.04047 z m 121.01695,1.00316 c -1.99452,0.0607 -3.96224,1.91925 -3.96224,4.81262 0,1.78692 0.73112,3.28869 2.10051,4.31191 0.81425,0.60841 2.43604,0.64817 3.56954,0.088 1.99507,-0.98599 2.80035,-4.87918 1.49205,-7.21545 -0.79675,-1.42279 -2.00314,-2.0335 -3.19986,-1.99707 z m -198.62618,0.0122 c -4.020713,0.051 -5.241641,6.48726 -1.728406,9.11236 1.513292,1.13076 4.001971,0.39478 5.060982,-1.49634 1.831447,-3.27048 -0.08783,-7.65713 -3.332576,-7.61602 z m -40.33212,0.45093 c -0.497421,0.002 -0.999611,0.008 -1.50175,0.0168 l -6.9493837,0.12156 -0.1121156,29.68033 c -0.061794,16.32424 -0.019474,29.90586 0.094541,30.18161 0.3088192,0.74694 12.6585173,0.66884 16.2010873,-0.1025 8.696077,-1.89333 14.542018,-7.88374 17.024687,-17.44501 1.391997,-5.3608 2.015191,-13.59346 1.418722,-18.74745 -0.650518,-5.621 -1.453686,-8.39324 -3.607715,-12.45642 -3.102071,-5.85145 -8.370916,-9.80184 -14.531465,-10.89467 -1.309352,-0.23227 -4.554662,-0.37047 -8.036608,-0.35426 z m 3.493175,7.36943 c 3.041622,0.0101 4.119461,0.19447 6.118513,1.05062 4.283263,1.83441 6.881118,5.08909 8.437196,10.56935 0.98064,3.45366 1.309751,11.32293 0.672694,16.07776 -1.165364,8.69789 -4.614203,14.63593 -9.798949,16.87022 -1.770904,0.76314 -2.900169,0.93612 -6.117302,0.93948 -2.169885,0.002 -4.07571,-0.11634 -4.234959,-0.26338 -0.159267,-0.14707 -0.289078,-10.26021 -0.289078,-22.47354 0,-20.77145 0.04897,-22.22423 0.759965,-22.49382 0.41805,-0.15854 2.421386,-0.28229 4.45192,-0.27669 z m 260.566425,8.24003 c -2.35696,0.0245 -4.76299,0.49434 -6.9609,1.45177 -1.52614,0.66479 -3.2508,1.57046 -3.83256,2.01269 l -1.05752,0.80404 1.21025,3.06504 c 0.66572,1.68553 1.39734,3.06447 1.62598,3.06447 0.22866,0 1.13748,-0.51913 2.0193,-1.15366 2.12049,-1.52584 3.98717,-2.05494 7.24999,-2.05494 3.18012,0 5.10902,0.97875 6.36759,3.23175 0.99257,1.77687 1.86921,5.96695 1.34903,6.44732 -0.22009,0.20404 -1.27704,0.19914 -2.49141,-0.0101 -6.4586,-1.11423 -13.88035,2.31246 -17.06529,7.87883 -4.20944,7.35692 -1.92822,16.9792 4.77312,20.13496 v -0.001 c 3.71757,1.75068 10.16831,0.53899 13.49757,-2.53538 0.86652,-0.80017 1.7647,-1.45467 1.99627,-1.45467 0.23156,0 0.84254,0.69323 1.35812,1.54034 1.10773,1.82005 2.63651,2.7401 5.17432,3.11483 1.36286,0.20126 1.95206,0.12585 2.23443,-0.28596 0.67907,-0.99028 0.42171,-3.02775 -0.52179,-4.13536 -1.85683,-2.17986 -2.12106,-4.11651 -2.13748,-15.63956 -0.0192,-13.77461 -0.63324,-17.34169 -3.62286,-21.04146 -2.34652,-2.90391 -6.66652,-4.48024 -11.16616,-4.43347 z m -112.25797,0.0174 c -3.5199,0.0286 -6.12175,1.06336 -8.94444,3.47662 -4.37417,3.73966 -6.69138,9.20794 -7.17605,16.93214 -0.48042,7.65683 1.07861,14.492 4.31254,18.90374 2.22358,3.03342 4.30057,4.62268 7.35482,5.62881 3.13032,1.03117 8.07664,0.83358 10.91769,-0.43646 4.48336,-2.00419 8.23859,-7.15629 9.67048,-13.26682 0.97578,-4.16439 0.95369,-13.23335 -0.0425,-17.24706 -2.13139,-8.58815 -7.20626,-13.45938 -14.5248,-13.94293 -0.54363,-0.036 -1.06495,-0.0521 -1.5678,-0.0481 z m 32.96276,0.0237 c -3.15541,-0.0229 -5.94096,0.94243 -8.07904,2.8613 -2.3974,2.15163 -3.3659,4.61659 -3.3659,8.5665 0,5.56869 2.21839,8.89082 8.45053,12.65729 6.57366,3.97289 8.05478,5.65238 8.05478,9.13437 0,3.96999 -2.17043,5.84799 -6.38576,5.52519 -1.84652,-0.1414 -2.8821,-0.52818 -4.95555,-1.84944 -1.44171,-0.9187 -2.79404,-1.67001 -3.00531,-1.67001 -0.51698,0 -2.24651,5.44095 -2.07627,6.53182 0.15268,0.97823 2.55407,2.38971 5.56399,3.26938 2.64236,0.77226 6.72301,0.7644 9.58563,-0.0179 1.75833,-0.4806 2.92884,-1.17004 4.59615,-2.70732 2.91318,-2.68598 3.80901,-5.27968 3.53864,-10.24519 -0.33326,-6.12041 -2.16826,-8.5672 -9.62988,-12.84253 -5.54342,-3.17625 -6.78757,-4.6149 -6.78757,-7.84756 0,-1.61538 0.21516,-2.08921 1.47691,-3.25434 1.29709,-1.19778 1.74921,-1.36379 3.71377,-1.36379 2.21482,0 3.9363,0.59056 6.16942,2.11515 0.63423,0.43302 1.35202,0.67356 1.59507,0.53486 0.24304,-0.13871 0.76307,-1.55661 1.15571,-3.15072 0.70381,-2.85756 0.70106,-2.90788 -0.2012,-3.58254 -0.50329,-0.37637 -2.03059,-1.07337 -3.3944,-1.54902 -2.10007,-0.73244 -4.12649,-1.10178 -6.01972,-1.11546 z m 28.66598,0 c -3.1554,-0.0229 -5.94035,0.94243 -8.07843,2.8613 -2.3974,2.15163 -3.36591,4.61659 -3.36591,8.5665 0,5.56869 2.21838,8.89082 8.45053,12.65729 6.57365,3.97289 8.05418,5.65238 8.05418,9.13437 0,3.96999 -2.16985,5.84799 -6.38517,5.52519 -1.84652,-0.1414 -2.88269,-0.52818 -4.95614,-1.84944 -1.44171,-0.9187 -2.79403,-1.67001 -3.00531,-1.67001 -0.51698,0 -2.24652,5.44095 -2.07627,6.53182 0.1527,0.97823 2.55468,2.38971 5.5646,3.26938 2.64235,0.77226 6.72243,0.7644 9.58502,-0.0179 1.75833,-0.4806 2.92886,-1.17004 4.59615,-2.70732 2.91319,-2.68598 3.80901,-5.27968 3.53864,-10.24519 -0.33326,-6.12041 -2.16766,-8.5672 -9.62927,-12.84253 -5.54343,-3.17625 -6.78757,-4.6149 -6.78757,-7.84756 0,-1.61538 0.21515,-2.08921 1.4769,-3.25434 1.29709,-1.19778 1.7486,-1.36379 3.71317,-1.36379 2.21482,0 3.93691,0.59056 6.17003,2.11515 0.63422,0.43302 1.35201,0.67356 1.59507,0.53486 0.24304,-0.13871 0.76307,-1.55661 1.15571,-3.15072 0.70382,-2.85756 0.70104,-2.90788 -0.20121,-3.58254 -0.50332,-0.37637 -2.0312,-1.07337 -3.39499,-1.54902 -2.10009,-0.73244 -4.1265,-1.10178 -6.01973,-1.11546 z m -175.793886,0.33053 c -5.764605,0 -5.995889,0.15169 -5.824587,3.81988 l 0.130299,2.7982 2.388984,0.20028 2.38898,0.20087 0.112724,18.42849 c 0.08664,14.13117 0.238575,18.50239 0.651483,18.74455 0.637882,0.37401 4.29854,0.43324 5.280977,0.0851 0.6148,-0.21786 0.68724,-2.53235 0.68724,-22.01683 0,-19.48452 -0.07243,-21.79954 -0.68724,-22.01741 -0.377871,-0.13379 -2.685748,-0.24313 -5.128861,-0.24313 z m 198.492866,0 c -5.76464,0 -5.9959,0.15169 -5.82459,3.81988 l 0.13029,2.7982 2.38898,0.20028 2.38899,0.20087 0.1127,18.42849 c 0.0867,14.13117 0.23859,18.50239 0.65149,18.74455 h 6.2e-4 c 0.63788,0.37401 4.29795,0.43324 5.28037,0.0851 0.6148,-0.21786 0.68724,-2.53235 0.68724,-22.01683 0,-19.48452 -0.0725,-21.79954 -0.68724,-22.01741 -0.37786,-0.13379 -2.68574,-0.24313 -5.12887,-0.24313 z m -149.005406,3.71453 c -0.28223,-0.006 -0.581,0.0157 -0.891472,0.0694 -2.442151,0.42306 -2.818585,1.53294 -0.866628,2.55508 v -6e-4 c 1.14642,0.60122 2.954136,0.60033 3.605286,-0.001 1.2947,-1.19556 0.12845,-2.5829 -1.847186,-2.6228 z m 11.632806,0.356 c -0.15468,0.003 -0.3196,0.0101 -0.49513,0.0214 -2.23953,0.13748 -3.22784,1.04205 -2.28474,2.09141 0.77854,0.86625 3.18832,0.80033 4.4204,-0.12097 0.88008,-0.65809 0.93311,-0.84303 0.4115,-1.42342 -0.37804,-0.42068 -0.96927,-0.59039 -2.05203,-0.56844 z m 53.76183,2.00285 c 3.8954,-0.0134 7.16738,2.91591 8.35416,7.89502 2.54972,10.69754 0.012,21.84716 -5.49854,24.15745 -2.28843,0.95948 -4.37284,0.96778 -6.59485,0.0254 -2.18182,-0.92521 -2.9436,-1.71913 -4.29315,-4.4711 -1.46765,-2.99279 -2.18181,-8.01521 -1.87627,-13.19447 0.42838,-7.26234 2.7334,-12.10098 6.52212,-13.68939 1.15636,-0.48481 2.2958,-0.71922 3.38653,-0.72299 z m 115.43296,16.19468 c 1.41224,-0.0112 2.71587,0.15517 3.41985,0.51865 0.93445,0.48245 0.97753,0.73051 0.97753,5.66123 v 5.15645 l -2.05082,2.10647 c -1.128,1.15856 -2.68561,2.35139 -3.46105,2.65058 -0.77543,0.29919 -2.48417,0.54413 -3.79741,0.54413 -3.19281,0 -5.17417,-1.49401 -5.85186,-4.41205 -1.05367,-4.537 1.30775,-9.1413 5.82278,-11.35255 1.13025,-0.55354 3.12525,-0.8592 4.94098,-0.87291 z m -214.626672,3.24913 c -0.38136,0.0112 -0.776589,0.0806 -1.178735,0.21011 -2.447048,0.78774 -3.030181,3.67789 -1.0345,5.12752 1.548997,1.12514 3.420344,1.06448 4.73918,-0.15339 1.231689,-1.13739 1.361886,-2.45837 0.370891,-3.76488 -0.730578,-0.96324 -1.752756,-1.45306 -2.896836,-1.41936 z m 5.862157,3.76199 c -0.853462,0 -1.604319,1.37809 -1.133886,2.08099 0.124125,0.18546 1.043273,0.71801 2.042332,1.18376 5.555946,2.59008 8.537075,6.04928 8.544464,9.91351 0.0056,2.98119 -0.860541,5.78163 -3.904674,12.62545 -2.964818,6.66553 -4.335955,11.3779 -4.340411,14.91483 -0.0033,2.59799 1.259212,7.38853 2.572005,9.75896 2.048888,3.69951 6.655603,7.0623 11.323731,8.26608 4.703849,1.21296 10.42627,0.23538 14.207234,-2.42773 2.68005,-1.88766 5.17105,-6.98983 6.21366,-12.72675 0.24767,-1.36277 0.62971,-6.80957 0.84905,-12.1039 0.27048,-6.52859 0.6121,-10.27085 1.06117,-11.63098 0.36439,-1.10364 2.12572,-3.94479 3.9174,-6.31765 4.21074,-5.57672 4.2944,-5.72787 3.72044,-6.71821 -0.91154,-1.57283 -1.98792,-0.92349 -5.0216,3.02858 -3.08966,4.025 -4.98362,5.79772 -6.19548,5.79436 -1.89751,-0.003 -4.85987,-2.75349 -8.534152,-7.92051 -1.357732,-1.90933 -2.903819,-2.28062 -3.708922,-0.89143 -0.486472,0.83941 0.743679,2.61621 6.793628,9.81568 2.437326,2.90044 2.917496,3.89672 3.813766,7.90487 0.91353,4.08535 0.92669,14.20052 0.0242,19.01604 -1.1347,6.0552 -3.901276,10.24856 -7.923883,12.01128 -2.075846,0.9096 -6.617667,0.92801 -9.434121,0.0382 -4.404161,-1.39141 -8.002661,-4.72563 -9.501388,-8.80267 -0.887796,-2.41512 -0.918858,-8.02382 -0.06302,-11.37513 0.34628,-1.35598 1.792364,-5.15416 3.213189,-8.44032 3.417043,-7.90315 4.097949,-10.17098 4.131936,-13.76117 0.0359,-3.79228 -1.047446,-6.01258 -4.252536,-8.71759 -2.458442,-2.07484 -7.008545,-4.51855 -8.414167,-4.51855 z"
       inkscape:connector-curvature="0" />
    <path
       style="fill:#241f1c;stroke-width:0.71428573"
       d=""
       id="path22"
       inkscape:connector-curvature="0"
       transform="scale(0.26458333)" />
    <path
       id="path48"
       transform="scale(0.26458333)"
       style="fill:#241f1c;stroke-width:0.99999994"
       d="m 346.05664,227.01172 c 0.14796,0.28284 0.30008,0.56355 0.44531,0.84766 -0.0129,-0.18229 -0.0263,-0.36459 -0.0391,-0.54688 -0.13697,-0.10174 -0.27125,-0.2006 -0.40625,-0.30078 z"
       inkscape:connector-curvature="0" />
    <path
       id="path868"
       transform="scale(0.26458333)"
       style="fill:#999999;stroke-width:0.99999994"
       d="m 302.84375,-260.34766 c 0.009,0.0437 0.0166,0.0876 0.0273,0.13086 0.41998,1.79498 1.13818,3.49305 1.83789,5.19141 0.51818,1.27066 1.07981,2.52274 1.64454,3.77344 -0.52568,-1.59312 -1.04924,-3.18772 -1.56836,-4.78321 -0.46842,-1.43964 -1.41332,-2.86888 -1.94141,-4.3125 z"
       inkscape:connector-curvature="0" />
    <path
       id="path870"
       transform="scale(0.26458333)"
       style="fill:#999999;stroke-width:0.99999994"
       d="m 380.77344,-281.93359 -0.94141,0.72461 c 0.25864,-0.0732 0.52135,-0.1294 0.78125,-0.19727 0.0546,-0.17539 0.10539,-0.35203 0.16016,-0.52734 z"
       inkscape:connector-curvature="0" />
    <path
       id="path1028"
       transform="matrix(0.26458333,0,0,0.26458333,0,87)"
       style="fill:#999999;stroke-width:0.99999994"
       d="m 342.86719,546.63672 c 0.0265,0.12139 0.0487,0.23719 0.0742,0.35742 0.0218,-0.0154 0.0447,-0.0293 0.0664,-0.0449 0.009,0.007 0.012,0.0158 0.0176,0.0234 -0.001,-0.005 -0.003,-0.009 -0.004,-0.0137 -0.043,-0.0848 -0.0817,-0.16104 -0.15429,-0.32226 z m -2.89063,35.2793 c -0.0204,0.0317 -0.0402,0.0639 -0.0605,0.0957 -0.0384,0.0612 -0.0768,0.12237 -0.11524,0.18359 -0.0663,0.20179 -0.12988,0.40472 -0.19922,0.60547 0.0213,-0.0424 0.0385,-0.087 0.0605,-0.1289 0.0209,-0.0396 0.0683,-0.11122 0.0918,-0.1543 0.0277,-0.074 0.16901,-0.46257 0.22265,-0.60156 z" />
    <path
       style="fill:#999999;stroke-width:0.26458332"
       id="path1200"
       d="m 112.99744,158.35844 c 0.49584,-0.0476 0.99339,-0.0724 1.49107,-0.0902 0.44613,-0.0121 0.89323,-0.007 1.33745,0.0396 0.30745,0.0324 0.38079,0.0506 0.68412,0.10374 0.42934,0.0896 0.8487,0.22686 1.23941,0.42757 0.24769,0.12724 0.29412,0.16822 0.52385,0.32274 0.53472,0.39656 0.9821,0.89302 1.41686,1.39323 0.41024,0.48635 0.8188,0.9772 1.17241,1.50721 0.0742,0.11117 0.14291,0.22588 0.21436,0.33882 0.35979,0.59626 0.61956,1.24493 0.80552,1.91484 0.0396,0.14275 0.0727,0.28723 0.10911,0.43085 0.21918,0.92788 0.29653,1.87955 0.35993,2.82826 0.0692,0.98444 0.0777,1.97134 0.066,2.95768 -0.0182,0.82825 -0.0424,1.65702 -0.11068,2.48294 -0.0138,0.16699 -0.0314,0.33366 -0.0471,0.50049 -0.0923,0.86839 -0.23185,1.73171 -0.42656,2.58312 -0.0405,0.17696 -0.0854,0.35285 -0.12817,0.52927 -0.27714,1.08705 -0.65671,2.14396 -1.04473,3.19531 -0.37849,1.02591 -0.81667,2.02781 -1.27955,3.01799 -0.39417,0.82183 -0.83295,1.62178 -1.30699,2.40015 -0.0932,0.15297 -0.18921,0.30416 -0.28381,0.45624 -0.47604,0.74253 -0.97472,1.4704 -1.48879,2.18705 -0.25748,0.37152 -0.55163,0.7145 -0.83522,1.06563 -0.0256,0.0339 -0.0512,0.0679 -0.0768,0.10182 0,0 -0.34706,0.14954 -0.34706,0.14954 v 0 c 0.0258,-0.0345 0.0516,-0.0691 0.0774,-0.1036 0.287,-0.35386 0.58978,-0.69536 0.85054,-1.06998 0.5197,-0.71686 1.02255,-1.44607 1.50227,-2.19035 0.0949,-0.15197 0.19132,-0.30302 0.28475,-0.45592 0.47474,-0.77696 0.9133,-1.57602 1.30786,-2.39672 0.46357,-0.98958 0.9029,-1.99067 1.28222,-3.01602 0.38819,-1.04993 0.76849,-2.10533 1.04535,-3.19116 0.0427,-0.17607 0.0876,-0.35161 0.12805,-0.52822 0.19454,-0.84979 0.33414,-1.71147 0.42605,-2.57829 0.0157,-0.16655 0.0333,-0.33292 0.0471,-0.49963 0.0684,-0.82531 0.0932,-1.65346 0.11165,-2.48111 0.0119,-0.98539 0.003,-1.97134 -0.0655,-2.95485 -0.0628,-0.94639 -0.14039,-1.89565 -0.35984,-2.82105 -0.0363,-0.14303 -0.0694,-0.28692 -0.10895,-0.42908 -0.18562,-0.66654 -0.44501,-1.31185 -0.80303,-1.90521 -0.0712,-0.11239 -0.13971,-0.22657 -0.21369,-0.33717 -0.35362,-0.52867 -0.76263,-1.01782 -1.17316,-1.50245 -0.43416,-0.49707 -0.88109,-0.99016 -1.4151,-1.38308 -0.22762,-0.15218 -0.27474,-0.19327 -0.52002,-0.3185 -0.3886,-0.19839 -0.80559,-0.33334 -1.23235,-0.4208 -0.30485,-0.0526 -0.37298,-0.0697 -0.68208,-0.10111 -0.44421,-0.0451 -0.89114,-0.0479 -1.33703,-0.0346 -0.50185,0.0196 -1.00393,0.0449 -1.50311,0.10228 0,0 0.30585,-0.22723 0.30585,-0.22723 z"
       inkscape:connector-curvature="0" />
    <path
       style="fill:#999999;stroke-width:0.26458332"
       id="path1202"
       d="m 95.991679,158.18477 c -0.353949,0.0317 -0.704488,0.0877 -1.053597,0.15299 -0.571956,0.11124 -1.104152,0.3277 -1.633474,0.56442 -0.304496,0.13506 -0.598208,0.29183 -0.890995,0.45011 -0.0038,0.002 0.01529,-0.008 0.01162,-0.006 -0.423884,0.26846 -0.166248,0.0969 -0.582935,0.38401 -0.399074,0.28523 -0.774309,0.60352 -1.11736,0.95429 -0.216405,0.22127 -0.314431,0.34077 -0.518273,0.57486 -0.449356,0.5441 -0.85715,1.12417 -1.202177,1.74024 -0.07128,0.12728 -0.13679,0.25771 -0.205182,0.38657 -0.327054,0.65647 -0.575585,1.35013 -0.761423,2.05915 -0.03697,0.14105 -0.0687,0.28343 -0.103055,0.42515 -0.164928,0.75751 -0.250415,1.53088 -0.276284,2.30532 -0.0057,0.17139 -0.0057,0.34292 -0.0086,0.51439 -0.0046,1.15532 0.155048,2.30123 0.326017,3.44103 0.172373,1.11813 0.360582,2.23455 0.589865,3.3426 0.04891,0.23635 0.10188,0.47185 0.15282,0.70778 0.21058,0.94099 0.442667,1.87754 0.715389,2.80259 0.179652,0.60937 0.229616,0.74755 0.426492,1.35025 0.292759,0.85991 0.615387,1.70977 0.966724,2.54746 0.191929,0.45763 0.324805,0.75126 0.525616,1.20424 0.50283,1.1408 1.032349,2.26949 1.547701,3.40461 0.378101,0.84483 0.766403,1.68487 1.173891,2.51592 0,0 -0.30262,0.17195 -0.30262,0.17195 v 0 c -0.405681,-0.83248 -0.791761,-1.67409 -1.169075,-2.5198 -0.513876,-1.13603 -1.042733,-2.26527 -1.544383,-3.40682 -0.200131,-0.45253 -0.333719,-0.74853 -0.525053,-1.20567 -0.351091,-0.83882 -0.673158,-1.68988 -0.965451,-2.55095 -0.197734,-0.60609 -0.245952,-0.73899 -0.426342,-1.3518 -0.272544,-0.92586 -0.504536,-1.86316 -0.715936,-2.80471 -0.0512,-0.23601 -0.10437,-0.47159 -0.153593,-0.70801 -0.230577,-1.10745 -0.422595,-2.22288 -0.597493,-3.34031 -0.173146,-1.14027 -0.33538,-2.28655 -0.335319,-3.44261 0.0021,-0.17157 0.0016,-0.34321 0.0066,-0.51473 0.02302,-0.77564 0.106584,-1.55034 0.269584,-2.3094 0.03417,-0.14211 0.0657,-0.28488 0.102491,-0.42633 0.184955,-0.71104 0.432962,-1.40678 0.75827,-2.06599 0.06815,-0.12933 0.133405,-0.26024 0.204462,-0.388 0.343275,-0.61721 0.74945,-1.19859 1.196385,-1.74483 0.200866,-0.23233 0.302955,-0.35717 0.516154,-0.57712 0.341522,-0.35232 0.715261,-0.67248 1.113309,-0.95924 0.09626,-0.067 0.191145,-0.13596 0.28879,-0.20089 0.568462,-0.378 1.175647,-0.69738 1.794039,-0.98491 0.09769,-0.0433 0.194706,-0.0882 0.293079,-0.13 0.435477,-0.18492 0.885626,-0.33892 1.350301,-0.43122 0.354046,-0.0659 0.709543,-0.12281 1.068101,-0.15807 0,0 -0.309097,0.22753 -0.309097,0.22753 z"
       inkscape:connector-curvature="0" />
  </g>
</svg>
