<?xml version="1.0" encoding="UTF-8" standalone="no"?>
<!-- Created with Inkscape (http://www.inkscape.org/) -->

<svg
   xmlns:dc="http://purl.org/dc/elements/1.1/"
   xmlns:cc="http://creativecommons.org/ns#"
   xmlns:rdf="http://www.w3.org/1999/02/22-rdf-syntax-ns#"
   xmlns:svg="http://www.w3.org/2000/svg"
   xmlns="http://www.w3.org/2000/svg"
   xmlns:sodipodi="http://sodipodi.sourceforge.net/DTD/sodipodi-0.dtd"
   xmlns:inkscape="http://www.inkscape.org/namespaces/inkscape"
   width="210mm"
   height="297mm"
   viewBox="0 0 210 297"
   version="1.1"
   id="svg8"
   inkscape:version="0.92.4 (5da689c313, 2019-01-14)"
   sodipodi:docname="LOGO Final.svg">
  <defs
     id="defs2" />
  <sodipodi:namedview
     id="base"
     pagecolor="#ffffff"
     bordercolor="#666666"
     borderopacity="1.0"
     inkscape:pageopacity="0.0"
     inkscape:pageshadow="2"
     inkscape:zoom="1.8101934"
     inkscape:cx="277.31864"
     inkscape:cy="370.41191"
     inkscape:document-units="mm"
     inkscape:current-layer="layer1"
     showgrid="false"
     inkscape:window-width="3840"
     inkscape:window-height="2004"
     inkscape:window-x="-16"
     inkscape:window-y="-16"
     inkscape:window-maximized="1" />
  <metadata
     id="metadata5">
    <rdf:RDF>
      <cc:Work
         rdf:about="">
        <dc:format>image/svg+xml</dc:format>
        <dc:type
           rdf:resource="http://purl.org/dc/dcmitype/StillImage" />
        <dc:title></dc:title>
      </cc:Work>
    </rdf:RDF>
  </metadata>
  <g
     inkscape:label="Layer 1"
     inkscape:groupmode="layer"
     id="layer1">
    <path
       style="fill:#121212;stroke-width:0.26458332"
       d="m 69.512876,281.77423 c -2.843663,-0.79409 -5.649788,-3.01233 -6.897894,-5.45278 -0.799706,-1.56369 -1.568916,-4.72408 -1.566921,-6.43789 0.0027,-2.33319 0.838134,-5.44168 2.644193,-9.8387 1.854375,-4.51464 2.381999,-6.36217 2.378554,-8.32876 -0.0045,-2.5491 -1.820609,-4.8308 -5.205087,-6.53939 -0.608589,-0.30724 -1.168395,-0.65871 -1.244007,-0.78106 -0.28657,-0.46368 0.170812,-1.37261 0.69071,-1.37261 0.856253,0 3.628147,1.6118 5.125739,2.98051 1.952423,1.7844 2.612163,3.2491 2.590293,5.75074 -0.0207,2.36833 -0.43551,3.86433 -2.517046,9.07777 -0.865516,2.16777 -1.74625,4.67326 -1.957189,5.56775 -0.52134,2.21075 -0.502399,5.91092 0.03841,7.50409 0.912969,2.68949 3.105092,4.88865 5.787945,5.80652 1.71568,0.58697 4.48236,0.57483 5.74689,-0.0252 2.45043,-1.16281 4.13549,-3.92896 4.82671,-7.92337 0.5497,-3.17664 0.54199,-9.84924 -0.0145,-12.54421 -0.54597,-2.64404 -0.83872,-3.30104 -2.32345,-5.21437 -3.68541,-4.74925 -4.43466,-5.92163 -4.13832,-6.47536 0.49044,-0.9164 1.43222,-0.67114 2.2593,0.58838 2.23824,3.4085 4.04269,5.22195 5.19859,5.22454 0.73822,0.002 1.89214,-1.16689 3.77425,-3.82205 1.847996,-2.60705 2.503796,-3.03533 3.059066,-1.99779 0.34964,0.65331 0.29868,0.75295 -2.266366,4.43172 -1.09142,1.56529 -2.16462,3.43921 -2.3866,4.16724 -0.27356,0.89723 -0.48152,3.36623 -0.64628,7.67292 -0.13361,3.4925 -0.36637,7.08553 -0.51724,7.9845 -0.63513,3.78445 -2.15249,7.14987 -3.78508,8.3951 -2.30323,1.75676 -5.78927,2.40195 -8.65468,1.6018 z m 31.004554,-28.66485 c -1.731838,-0.60576 -2.995978,-1.79398 -3.801038,-3.57276 l -0.6129,-1.35421 v -17.99167 -17.99166 h 1.85208 1.852077 l 0.1323,16.93333 c 0.117711,15.06789 0.180311,17.02085 0.568221,17.72771 0.5799,1.05671 1.32731,1.70579 2.24762,1.95192 0.75586,0.20215 0.75603,0.20271 0.75603,2.43212 v 2.22992 l -0.79375,0.0637 c -0.43656,0.035 -1.42685,-0.15774 -2.20064,-0.4284 z m 13.49966,0.0117 c -1.86054,-0.66371 -3.12548,-1.71213 -4.48,-3.71317 -1.96999,-2.91028 -2.91998,-7.41931 -2.62732,-12.47026 0.29524,-5.09539 1.70695,-8.70232 4.37153,-11.16925 1.96512,-1.81936 3.75448,-2.45135 6.40379,-2.26179 4.45818,0.31898 7.5493,3.53239 8.84767,9.19771 0.6068,2.64771 0.62049,8.62998 0.0261,11.37708 -0.87225,4.03091 -3.15999,7.42949 -5.89109,8.75159 -1.73066,0.8378 -4.74376,0.96832 -6.65063,0.28809 z m 4.88921,-4.26222 c 3.35679,-1.52403 4.90271,-8.87898 3.34951,-15.93578 -0.92536,-4.20423 -3.93198,-6.19309 -7.15214,-4.73111 -2.30795,1.04782 -3.71224,4.23945 -3.9732,9.03017 -0.18612,3.41658 0.24899,6.72991 1.14303,8.70417 0.8221,1.81538 1.28631,2.33882 2.6154,2.94915 1.35357,0.62156 2.62337,0.61631 4.0174,-0.0166 z m 14.37114,4.33386 c -1.83353,-0.58029 -3.29663,-1.51107 -3.38964,-2.15637 -0.10371,-0.71961 0.94987,-4.30912 1.2648,-4.30912 0.1287,0 0.95255,0.49585 1.83079,1.10188 1.26307,0.87159 1.89398,1.12652 3.01881,1.2198 2.56782,0.21294 3.88983,-1.02572 3.88983,-3.64459 0,-2.29695 -0.90214,-3.40483 -4.90657,-6.02561 -3.79639,-2.48461 -5.1476,-4.67641 -5.1476,-8.34989 0,-2.60562 0.58997,-4.23161 2.05038,-5.65097 2.0839,-2.02531 5.17682,-2.44005 8.58825,-1.15162 0.83078,0.31377 1.76137,0.77362 2.06797,1.0219 0.54962,0.44505 0.55134,0.47834 0.1226,2.36338 -0.23918,1.05158 -0.55601,1.98684 -0.70406,2.07834 -0.14806,0.0915 -0.5853,-0.0673 -0.97165,-0.35296 -1.36033,-1.00572 -2.40929,-1.39507 -3.75848,-1.39507 -1.19674,0 -1.47195,0.10944 -2.26209,0.89958 -0.76861,0.7686 -0.89959,1.08118 -0.89959,2.14679 0,2.13249 0.7579,3.08136 4.13475,5.17662 4.54534,2.82029 5.66291,4.43433 5.86592,8.47176 0.1647,3.27558 -0.38107,4.98669 -2.15567,6.75854 -1.01567,1.01409 -1.72868,1.4689 -2.79979,1.78594 -1.7438,0.51613 -4.22933,0.5211 -5.83896,0.0117 z m 17.4625,0 c -1.83353,-0.58029 -3.29663,-1.51107 -3.38964,-2.15637 -0.10371,-0.71961 0.94987,-4.30912 1.2648,-4.30912 0.1287,0 0.95255,0.49585 1.83079,1.10188 1.26307,0.87159 1.89398,1.12652 3.01881,1.2198 2.56782,0.21294 3.88983,-1.02572 3.88983,-3.64459 0,-2.29695 -0.90214,-3.40483 -4.90657,-6.02561 -3.79639,-2.48461 -5.1476,-4.67641 -5.1476,-8.34989 0,-2.60562 0.58997,-4.23161 2.05038,-5.65097 2.0839,-2.02531 5.17681,-2.44005 8.58825,-1.15162 0.83078,0.31377 1.76137,0.77362 2.06797,1.0219 0.54962,0.44505 0.55134,0.47834 0.1226,2.36338 -0.23918,1.05158 -0.55601,1.98684 -0.70406,2.07834 -0.14806,0.0915 -0.5853,-0.0673 -0.97165,-0.35296 -1.36033,-1.00572 -2.40929,-1.39507 -3.75848,-1.39507 -1.19674,0 -1.47195,0.10944 -2.26209,0.89958 -0.76861,0.7686 -0.89959,1.08118 -0.89959,2.14679 0,2.13249 0.7579,3.08136 4.13475,5.17662 4.54534,2.82029 5.66291,4.43433 5.86592,8.47176 0.1647,3.27558 -0.38107,4.98669 -2.15567,6.75854 -1.01567,1.01409 -1.72868,1.4689 -2.79979,1.78594 -1.7438,0.51613 -4.22933,0.5211 -5.83896,0.0117 z m 30.22336,-0.12905 c -4.08221,-2.08175 -5.47159,-8.42919 -2.90734,-13.2823 1.94015,-3.67194 6.46123,-5.93224 10.39557,-5.19722 0.73975,0.1382 1.38358,0.14125 1.51764,0.007 0.31688,-0.31688 -0.21727,-3.08074 -0.82191,-4.25288 -0.76667,-1.48624 -1.94162,-2.13207 -3.87884,-2.13207 -1.98759,0 -3.12488,0.34908 -4.41661,1.35562 -0.53717,0.41858 -1.09064,0.76105 -1.22993,0.76105 -0.13929,0 -0.58505,-0.90973 -0.99058,-2.02162 l -0.73732,-2.02161 0.64434,-0.53041 c 0.35438,-0.29172 1.40496,-0.88922 2.33463,-1.32776 3.89494,-1.83735 8.86423,-0.95226 11.04238,1.96678 1.82116,2.44061 2.19535,4.79395 2.20705,13.88059 0.01,7.60137 0.17099,8.87858 1.3021,10.31656 0.57474,0.73065 0.7312,2.07494 0.31754,2.7282 -0.17201,0.27166 -0.53063,0.32136 -1.36084,0.1886 -1.54594,-0.2472 -2.47719,-0.85435 -3.15198,-2.05498 -0.31407,-0.55881 -0.68645,-1.01602 -0.82751,-1.01602 -0.14106,0 -0.68834,0.43188 -1.21619,0.95972 -2.02806,2.02806 -5.95759,2.82741 -8.2222,1.67255 z m 5.84205,-4.04944 c 0.47236,-0.19737 1.42103,-0.98415 2.10817,-1.74841 l 1.24934,-1.38957 v -3.40166 c 0,-3.25263 -0.0261,-3.41624 -0.59531,-3.7345 -0.98021,-0.54806 -3.86921,-0.41553 -5.09323,0.23364 -2.75038,1.45868 -4.18902,4.49601 -3.54716,7.48891 0.41282,1.92493 1.61992,2.91043 3.56486,2.91043 0.79998,0 1.84097,-0.16148 2.31333,-0.35884 z m -167.706188,3.73227 c -0.06945,-0.1819 -0.09548,-9.14135 -0.05784,-19.90989 l 0.06843,-19.57917 4.233333,-0.0802 c 2.44708,-0.0464 4.89872,0.0476 5.810271,0.22269 3.752781,0.72091 6.96261,3.32686 8.852278,7.18686 1.312156,2.68034 1.801233,4.50913 2.197505,8.21712 0.363346,3.39991 -0.01606,8.83078 -0.864013,12.36712 -1.512351,6.30725 -5.073597,10.25893 -10.370928,11.5079 -2.158003,0.5088 -9.680913,0.56034 -9.869034,0.0676 z m 10.593921,-5.31888 c 3.158357,-1.47388 5.259554,-5.39114 5.969452,-11.12884 0.388072,-3.1366 0.187428,-8.32766 -0.409943,-10.60592 -0.947904,-3.61515 -2.530546,-5.76201 -5.139753,-6.97211 -1.21775,-0.56477 -1.874205,-0.68686 -3.727048,-0.69316 -1.236927,-0.004 -2.457318,0.0779 -2.711979,0.18249 -0.433107,0.17784 -0.463021,1.1365 -0.463021,14.83871 0,8.05672 0.07937,14.72796 0.176389,14.82497 0.09701,0.097 1.257873,0.17522 2.579687,0.1738 1.959759,-0.002 2.647448,-0.11652 3.726216,-0.61994 z m 17.399057,5.43318 c -0.251529,-0.15975 -0.34408,-3.04337 -0.396875,-12.36522 l -0.06885,-12.15689 -1.455208,-0.13229 -1.455208,-0.13229 -0.0796,-1.8458 c -0.104352,-2.41978 0.03653,-2.51983 3.548112,-2.51983 1.488255,0 2.894248,0.0723 3.124431,0.1606 0.37452,0.14372 0.418515,1.67051 0.418515,14.52378 0,12.85326 -0.044,14.38006 -0.418515,14.52377 -0.598464,0.22966 -2.828229,0.19095 -3.216802,-0.0558 z m 120.91457,0 c -0.25153,-0.15975 -0.34408,-3.04337 -0.39688,-12.36522 l -0.0688,-12.15689 -1.4552,-0.13229 -1.45521,-0.13229 -0.0796,-1.8458 c -0.10435,-2.41978 0.0365,-2.51983 3.54811,-2.51983 1.48826,0 2.89425,0.0723 3.12443,0.1606 0.37452,0.14372 0.41852,1.67051 0.41852,14.52378 0,12.85326 -0.044,14.38006 -0.41852,14.52377 -0.59846,0.22966 -2.82823,0.19095 -3.2168,-0.0558 z m -112.613363,-8.7986 c -1.215694,-0.95627 -0.860558,-2.8626 0.630092,-3.38224 0.979892,-0.34159 1.889138,-0.0494 2.482527,0.79778 0.603676,0.86187 0.524441,1.7331 -0.225859,2.48339 -0.803386,0.80339 -1.943169,0.84329 -2.88676,0.10107 z M 76.259746,227.8902 c -1.18906,-0.67427 -0.95977,-1.40634 0.5279,-1.68542 1.513,-0.28385 2.56949,0.78274 1.66814,1.68409 -0.39667,0.39667 -1.49769,0.39734 -2.19604,0.001 z m 6.46389,-0.10288 c -0.5745,-0.69223 0.0274,-1.28894 1.3916,-1.37963 0.85542,-0.0569 1.28862,0.0439 1.55181,0.36105 0.31775,0.38286 0.28519,0.50467 -0.25092,0.93879 -0.75054,0.60775 -2.21823,0.65124 -2.69249,0.0798 z m -34.949609,-8.90751 c -2.140133,-1.7317 -1.396677,-5.97722 1.052594,-6.01086 1.976586,-0.0271 3.146039,2.86654 2.030389,5.02397 -0.64511,1.2475 -2.16114,1.7328 -3.082983,0.98689 z m 120.914573,0 c -0.83418,-0.67498 -1.27991,-1.6655 -1.27991,-2.84427 0,-3.05386 3.06862,-4.36023 4.36289,-1.85738 0.79697,1.54117 0.30668,4.10952 -0.90865,4.75995 -0.69048,0.36953 -1.67832,0.34305 -2.17433,-0.0583 z"
       id="path58"
       inkscape:connector-curvature="0" />
    <path
       style="fill:#241f1c;stroke-width:0.71428573"
       d=""
       id="path22"
       inkscape:connector-curvature="0"
       transform="scale(0.26458333)" />
    <path
       id="path48"
       transform="scale(0.26458333)"
       style="fill:#241f1c;stroke-width:0.99999994"
       d="m 346.05664,227.01172 c 0.14796,0.28284 0.30008,0.56355 0.44531,0.84766 -0.0129,-0.18229 -0.0263,-0.36459 -0.0391,-0.54688 -0.13697,-0.10174 -0.27125,-0.2006 -0.40625,-0.30078 z" />
    <path
       id="path868"
       transform="scale(0.26458333)"
       style="fill:#999999;stroke-width:0.99999994"
       d="m 302.84375,-260.34766 c 0.009,0.0437 0.0166,0.0876 0.0273,0.13086 0.41998,1.79498 1.13818,3.49305 1.83789,5.19141 0.51818,1.27066 1.07981,2.52274 1.64454,3.77344 -0.52568,-1.59312 -1.04924,-3.18772 -1.56836,-4.78321 -0.46842,-1.43964 -1.41332,-2.86888 -1.94141,-4.3125 z" />
    <path
       id="path870"
       transform="scale(0.26458333)"
       style="fill:#999999;stroke-width:0.99999994"
       d="m 380.77344,-281.93359 -0.94141,0.72461 c 0.25864,-0.0732 0.52135,-0.1294 0.78125,-0.19727 0.0546,-0.17539 0.10539,-0.35203 0.16016,-0.52734 z" />
    <path
       style="fill:#999999;stroke-width:0.26458332"
       id="path1028"
       d="m 85.942947,227.09372 c 0.205356,0.0156 0.407675,0.0533 0.608788,0.0962 0.24829,0.0573 0.492543,0.13312 0.727926,0.23098 0.05236,0.0218 0.103844,0.0456 0.155766,0.0684 0.320474,0.15142 0.619969,0.34163 0.914792,0.53718 0.245419,0.16959 0.486788,0.34664 0.710882,0.54395 0.0458,0.0403 0.09019,0.0822 0.135287,0.12333 0.23091,0.21434 0.438359,0.45364 0.612314,0.71654 0.03548,0.0536 0.06816,0.10905 0.102238,0.16357 0.218072,0.36368 0.381857,0.75527 0.535572,1.14933 0.136774,0.373 0.257233,0.75234 0.35215,1.13825 0.01969,0.08 0.03721,0.16051 0.05582,0.24076 0.114736,0.48585 0.166455,0.98231 0.209627,1.47859 0.0358,0.47545 0.05343,0.95207 0.06455,1.42867 0.0084,0.4607 -0.0051,0.92126 -0.03421,1.38099 -0.02999,0.46265 -0.08723,0.9229 -0.156599,1.38111 -0.0733,0.47735 -0.187166,0.94681 -0.305044,1.4147 -0.123716,0.47324 -0.250092,0.9457 -0.388175,1.41496 -0.128529,0.44753 -0.29327,0.88319 -0.465505,1.31537 -0.163346,0.39926 -0.319315,0.80142 -0.474197,1.20402 -0.120616,0.325 -0.248957,0.64698 -0.387202,0.96487 -0.123068,0.27606 -0.259723,0.54576 -0.393668,0.81663 -0.120851,0.24381 -0.237252,0.48976 -0.357071,0.73408 -0.106672,0.21946 -0.231273,0.42924 -0.363292,0.6342 -0.09959,0.1571 -0.199607,0.314 -0.295037,0.47369 -0.05936,0.098 -0.117006,0.19719 -0.171357,0.29809 -0.02829,0.055 -0.05576,0.11035 -0.08629,0.16413 -0.0034,0.006 -0.0067,0.013 -0.01005,0.0195 0,0 -0.24802,0.11256 -0.24802,0.11256 v 0 c 0.0032,-0.007 0.0064,-0.014 0.0096,-0.021 0.03,-0.0543 0.06098,-0.10808 0.08772,-0.16419 0.05415,-0.1021 0.113599,-0.20149 0.17335,-0.30037 0.09556,-0.16058 0.197085,-0.31752 0.296769,-0.47555 0.133186,-0.20404 0.25894,-0.41301 0.366184,-0.63205 0.120226,-0.24436 0.236556,-0.49059 0.35774,-0.73447 0.134337,-0.27072 0.271254,-0.54031 0.395269,-0.81598 0.139526,-0.31781 0.268947,-0.63985 0.39029,-0.96504 0.156122,-0.40285 0.312494,-0.8056 0.476398,-1.20537 0.172633,-0.43151 0.33768,-0.86658 0.466915,-1.3134 0.138708,-0.46901 0.265719,-0.94122 0.389393,-1.41441 0.117779,-0.46697 0.231243,-0.93559 0.304977,-1.41193 0.06987,-0.45749 0.127069,-0.9171 0.157509,-1.37906 0.02955,-0.45906 0.04315,-0.91895 0.03518,-1.37899 -0.01071,-0.47631 -0.02721,-0.95267 -0.06258,-1.42786 -0.04266,-0.49517 -0.0937,-0.99056 -0.208052,-1.47533 -0.01855,-0.08 -0.03605,-0.1603 -0.05566,-0.24007 -0.09464,-0.38488 -0.215127,-0.76308 -0.35188,-1.13495 -0.153604,-0.39232 -0.317762,-0.78192 -0.535416,-1.14388 -0.03388,-0.0541 -0.06636,-0.10913 -0.10164,-0.16234 -0.173201,-0.2612 -0.379748,-0.4988 -0.609864,-0.71129 -0.04499,-0.0408 -0.08929,-0.0824 -0.134983,-0.12246 -0.223806,-0.19611 -0.464391,-0.37258 -0.709139,-0.5414 -0.294145,-0.19434 -0.592957,-0.38354 -0.913056,-0.53291 -0.05181,-0.0225 -0.103166,-0.046 -0.155419,-0.0674 -0.235333,-0.0964 -0.479522,-0.17046 -0.727564,-0.226 -0.202237,-0.0416 -0.405903,-0.0785 -0.61255,-0.0888 0,0 0.220572,-0.15816 0.220572,-0.15816 z"
       inkscape:connector-curvature="0" />
    <path
       style="fill:#999999;stroke-width:0.26458332"
       id="path1030"
       d="m 76.035955,227.35709 c -0.166611,-0.007 -0.332986,-0.0184 -0.499584,-0.026 -0.170474,-0.0101 -0.341037,-0.004 -0.510998,0.0105 -0.174146,0.015 -0.344834,0.0509 -0.512169,0.10032 -0.163291,0.0522 -0.31945,0.12323 -0.472419,0.19997 -0.04464,0.0238 -0.12042,0.0639 -0.164574,0.0886 -0.02707,0.0152 -0.107542,0.0619 -0.08067,0.0464 0.332849,-0.19219 0.06252,-0.0337 -0.0028,0.008 -0.149977,0.0988 -0.291852,0.20897 -0.430546,0.32287 -0.166473,0.13544 -0.32366,0.28146 -0.473787,0.43466 -0.170693,0.17586 -0.312489,0.37551 -0.446789,0.57963 -0.15227,0.24247 -0.300217,0.48764 -0.444285,0.73507 -0.146265,0.25863 -0.287576,0.52 -0.419878,0.78605 -0.143351,0.28782 -0.270981,0.583 -0.401921,0.87657 -0.14219,0.30511 -0.267081,0.61746 -0.37847,0.93499 -0.106649,0.31005 -0.165159,0.6325 -0.219507,0.95485 -0.05472,0.34731 -0.08201,0.69801 -0.101242,1.04881 -0.02088,0.39484 -0.01572,0.79028 -0.0026,1.18525 0.01535,0.43763 0.0518,0.87383 0.102658,1.30864 0.04936,0.43819 0.130199,0.87136 0.226118,1.30145 0.09542,0.39895 0.214268,0.79174 0.332134,1.18449 0.111049,0.36055 0.214194,0.72345 0.322572,1.0848 0.07043,0.2287 0.136396,0.45896 0.215575,0.68487 0.03258,0.093 0.08512,0.23082 0.11988,0.32311 0.120975,0.3054 0.244835,0.60965 0.370107,0.91331 0.118674,0.29371 0.23427,0.5886 0.356748,0.88076 0.114165,0.2761 0.244841,0.54479 0.375076,0.81351 0.113134,0.22795 0.2251,0.45635 0.328586,0.68886 0.08862,0.18817 0.161746,0.38261 0.236459,0.57649 0.06884,0.1767 0.143504,0.35117 0.223864,0.52292 0.07036,0.15236 0.157503,0.29593 0.241411,0.44099 0.0772,0.13614 0.153413,0.2728 0.233894,0.40704 0.06408,0.11006 0.126966,0.22085 0.187539,0.33289 0.0428,0.0896 0.09193,0.17592 0.134461,0.26566 0.02984,0.0656 0.0636,0.12938 0.09497,0.19429 0.02278,0.046 0.04671,0.0912 0.07154,0.13609 0.02299,0.0385 0.04654,0.0768 0.0737,0.11253 0.01257,0.019 0.02477,0.0382 0.04612,0.0476 0,0 -0.22929,0.14824 -0.22929,0.14824 v 0 c -0.02098,-0.0153 -0.0372,-0.0346 -0.05095,-0.0567 -0.0278,-0.0369 -0.0521,-0.0762 -0.07563,-0.11595 -0.02487,-0.0455 -0.04917,-0.0911 -0.07199,-0.13765 -0.03073,-0.0653 -0.06438,-0.12917 -0.09404,-0.19496 -0.04194,-0.0895 -0.09054,-0.17558 -0.132905,-0.26491 -0.05986,-0.11197 -0.122368,-0.2225 -0.185873,-0.33243 -0.0802,-0.13455 -0.156162,-0.27152 -0.23337,-0.40779 -0.08427,-0.14576 -0.171987,-0.28995 -0.242311,-0.4432 -0.08007,-0.17259 -0.154871,-0.34766 -0.223867,-0.52499 -0.07476,-0.19343 -0.147166,-0.38775 -0.234727,-0.57597 -0.102693,-0.23259 -0.214194,-0.46095 -0.326533,-0.689 -0.130056,-0.26937 -0.260501,-0.53872 -0.37473,-0.81532 -0.122626,-0.29217 -0.238066,-0.58719 -0.356676,-0.88099 -0.125222,-0.30401 -0.24886,-0.60868 -0.369727,-0.91445 -0.03548,-0.0943 -0.08681,-0.2291 -0.12003,-0.32411 -0.07912,-0.22625 -0.145064,-0.45684 -0.215593,-0.68583 -0.108062,-0.36153 -0.210791,-0.72462 -0.321617,-1.08532 -0.1177,-0.39354 -0.235998,-0.78723 -0.331701,-1.18684 -0.096,-0.43095 -0.177165,-0.86496 -0.227004,-1.30396 -0.05129,-0.4353 -0.08813,-0.87198 -0.104413,-1.31012 -0.01431,-0.39531 -0.02021,-0.79111 -2.38e-4,-1.18638 0.01834,-0.35147 0.04501,-0.70279 0.09877,-1.05086 0.05387,-0.32356 0.11149,-0.64731 0.217397,-0.95879 0.111059,-0.31824 0.235551,-0.63138 0.37782,-0.93708 0.130876,-0.29346 0.257532,-0.58895 0.40023,-0.87696 0.131641,-0.2668 0.273251,-0.52841 0.419179,-0.78766 0.143624,-0.24752 0.29127,-0.49268 0.442355,-0.73572 0.13336,-0.20533 0.274015,-0.40635 0.443693,-0.58387 0.149037,-0.15403 0.305263,-0.30085 0.471191,-0.4367 0.138125,-0.11486 0.279723,-0.22556 0.429075,-0.32559 0.227158,-0.14902 0.465915,-0.27996 0.70581,-0.40718 0.15421,-0.0757 0.311174,-0.14671 0.475919,-0.1966 0.168492,-0.0474 0.340069,-0.0816 0.514821,-0.0957 0.170831,-0.0136 0.342159,-0.0187 0.513374,-0.008 0.167463,0.008 0.334751,0.0198 0.502383,0.0241 0,0 -0.219996,0.15807 -0.219996,0.15807 z"
       inkscape:connector-curvature="0" />
  </g>
</svg>
